<?xml version="1.0" encoding="UTF-8" standalone="no"?>
<svg
   xmlns:dc="http://purl.org/dc/elements/1.1/"
   xmlns:cc="http://creativecommons.org/ns#"
   xmlns:rdf="http://www.w3.org/1999/02/22-rdf-syntax-ns#"
   xmlns:svg="http://www.w3.org/2000/svg"
   xmlns="http://www.w3.org/2000/svg"
   id="svg2112"
   version="1.1"
   viewBox="0 0 18 18"
   height="18mm"
   width="18mm">
  <defs
     id="defs2106" />
  <metadata
     id="metadata2109">
    <rdf:RDF>
      <cc:Work
         rdf:about="">
        <dc:format>image/svg+xml</dc:format>
        <dc:type
           rdf:resource="http://purl.org/dc/dcmitype/StillImage" />
        <dc:title></dc:title>
      </cc:Work>
    </rdf:RDF>
  </metadata>
  <g
     transform="translate(0,-279)"
     id="layer1">
    <g
       style="stroke-width:1.00258839"
       transform="matrix(0.99741831,0,0,0.99741831,14.033103,101.88124)"
       id="g2769">
      <path
         style="opacity:1;fill:#d6f5b9;fill-opacity:1;fill-rule:nonzero;stroke:none;stroke-width:0.75786209;stroke-linecap:round;stroke-linejoin:round;stroke-miterlimit:4;stroke-dasharray:none;stroke-dashoffset:0;stroke-opacity:1;paint-order:stroke markers fill"
         d="m -52.361862,704.12108 c 6.85e-4,-0.43173 0.07734,-1.50191 0.170334,-2.37818 0.788392,-7.42851 3.992257,-14.26957 9.18681,-19.61615 1.831138,-1.88473 3.337223,-3.14395 5.443832,-4.55151 4.487852,-2.99863 9.377836,-4.78784 14.811186,-5.41931 2.213868,-0.25729 6.66904,-0.16759 8.800615,0.17719 14.34012743,2.31956 25.457203,13.37036 27.752326,27.5869 0.192759,1.194 0.467959,4.00002 0.469044,4.78253 2.32e-4,0.1893 -0.24327,0.20351 -3.488496,0.20351 H 7.2950099 v -0.64419 c 0,-0.35431 -0.055184,-1.15237 -0.1226329,-1.77347 -1.1278803,-10.38616 -8.220436,-19.11582 -18.145793,-22.33421 -6.40749,-2.07768 -13.407193,-1.60915 -19.468531,1.30314 -2.788704,1.33989 -4.955211,2.87998 -7.219094,5.1318 -2.238181,2.22625 -3.804808,4.40117 -5.110397,7.09469 -1.588339,3.27685 -2.376449,6.31006 -2.681665,10.32097 l -0.06858,0.90127 h -3.42071 -3.420711 z"
         id="path2762"
         transform="scale(0.26458333)" />
      <circle
         style="opacity:1;fill:none;fill-opacity:0.54589371;fill-rule:nonzero;stroke:#000000;stroke-width:0.20051768;stroke-linecap:round;stroke-linejoin:round;stroke-miterlimit:4;stroke-dasharray:none;stroke-dashoffset:0;stroke-opacity:1;paint-order:stroke markers fill"
         id="path2650-9"
         cx="-5.0461307"
         cy="186.60051"
         r="8.9230366" />
      <circle
         style="opacity:1;fill:none;fill-opacity:0.54589371;fill-rule:nonzero;stroke:#000000;stroke-width:0.20051768;stroke-linecap:round;stroke-linejoin:round;stroke-miterlimit:4;stroke-dasharray:none;stroke-dashoffset:0;stroke-opacity:1;paint-order:stroke markers fill"
         id="path2650-3-5"
         cx="-5.0461307"
         cy="186.60051"
         r="6.8768921" />
      <path
         style="fill:none;stroke:#000000;stroke-width:0.20051768;stroke-linecap:butt;stroke-linejoin:miter;stroke-miterlimit:4;stroke-dasharray:none;stroke-opacity:1"
         d="m -13.969167,186.60051 h 2.046144"
         id="path2745" />
      <path
         style="fill:none;stroke:#000000;stroke-width:0.20051768;stroke-linecap:butt;stroke-linejoin:miter;stroke-miterlimit:4;stroke-dasharray:none;stroke-opacity:1"
         d="m 1.8307619,186.60051 h 2.046144"
         id="path2745-4" />
    </g>
  </g>
</svg>
